# xmcd CD database file generated by Grip 2.96
# 
# Track frame offsets:
#       150
#       15855
#       29058
#       48275
#       64575
#       77923
#       91420
#       106125
#       122375
#       143880
#       158640
#       170268
# 
# Disc length: 2734 seconds
# 
# Revision: 0
# Processed by: cddbd v1.4PL0 Copyright (c) Steve Scherf et al.
# Submitted via: Grip 2.96
# 
DISCID=890aac0c
DTITLE=D.D. and the Road Kings - Lover Bird
DYEAR=1900
DGENRE=
TTITLE0=Good Woman
TTITLE1=That's What You Gotta Do
TTITLE2=Take Me
TTITLE3=You Don't Move Me No More
TTITLE4=How Come
TTITLE5=I Still Love You
TTITLE6=Funnybone
TTITLE7=Just Like A Fish
TTITLE8=Just Got To Know
TTITLE9=I've Got A Feelin
TTITLE10=Lover Bird
TTITLE11=Morning Blues
EXTD=
EXTT0=
EXTT1=
EXTT2=
EXTT3=
EXTT4=
EXTT5=
EXTT6=
EXTT7=
EXTT8=
EXTT9=
EXTT10=
EXTT11=
PLAYORDER=
